<svg width="24" height="30" viewBox="0 0 24 30" fill="none"
  xmlns="http://www.w3.org/2000/svg">
  <g clip-path="url(#clip0_1513_6396)">
    <path d="M23.4015 19.5975C23.3384 19.2346 23.2402 18.8785 23.1085 18.5345C22.7928 17.6309 22.2848 16.8066 21.6195 16.1185C21.0453 15.6152 20.4233 15.1691 19.7625 14.7865C19.6805 14.7325 19.5995 14.6775 19.5195 14.6215C19.3836 14.512 19.2553 14.3934 19.1355 14.2665C19.1215 14.2445 19.1085 14.2225 19.0955 14.2005C19.0742 14.1338 19.0559 14.0635 19.0405 13.9895C19.0246 13.7197 19.0316 13.4491 19.0615 13.1805C19.1765 12.4605 19.3755 11.7565 19.5115 11.0395C19.6015 10.5655 19.6575 10.0855 19.7475 9.61148C19.8525 9.05748 19.9735 8.50549 20.0905 7.95349C20.2075 7.40149 20.3225 6.85349 20.4155 6.29349C20.5361 5.67945 20.6079 5.05685 20.6305 4.43149C20.6839 3.44332 20.3471 2.47369 19.6925 1.73148C19.3627 1.40252 18.9529 1.16508 18.5035 1.04248C18.27 0.98328 18.0304 0.951736 17.7895 0.948486C17.5463 0.951456 17.304 0.979621 17.0665 1.0325C16.7007 1.11035 16.3494 1.24533 16.0255 1.4325C15.6752 1.63037 15.3521 1.87307 15.0645 2.15448C14.7674 2.45288 14.4995 2.77903 14.2645 3.12848C14.0636 3.41329 13.877 3.70799 13.7055 4.01147C13.294 4.74299 12.9228 5.49647 12.5935 6.26849C12.1755 7.22749 11.7875 8.1995 11.4375 9.1835C11.2888 9.60284 11.1472 10.0245 11.0125 10.4485C10.8795 10.8675 10.7665 11.2915 10.6305 11.7085C10.5785 11.8678 10.5218 12.0255 10.4605 12.1815L10.4235 12.2615C10.3405 11.2855 10.3375 10.2985 10.3365 9.31949C10.3365 8.01949 10.3635 6.71949 10.3525 5.41949C10.3525 5.14549 10.3525 4.8705 10.3345 4.5975C10.3169 4.31291 10.2795 4.02988 10.2225 3.75049C10.1962 3.62224 10.1591 3.49645 10.1115 3.37448C9.96 2.93035 9.71249 2.52508 9.38653 2.1875C9.06553 1.87762 8.67443 1.64983 8.24652 1.5235C7.93754 1.4259 7.61203 1.39188 7.28955 1.42349C7.05643 1.44318 6.82528 1.48198 6.59851 1.53949C6.37106 1.61147 6.14971 1.70143 5.93652 1.8085C5.61756 1.96962 5.32078 2.17127 5.05352 2.40848C4.76511 2.66271 4.50915 2.95157 4.2915 3.26849C4.12599 3.49052 3.98646 3.73075 3.87554 3.9845C3.65854 4.4845 3.46251 4.98449 3.27551 5.49149C2.98315 6.25577 2.7321 7.03522 2.52349 7.82648C2.29449 8.70348 2.07054 9.58049 1.82354 10.4535C1.57354 11.3535 1.32353 12.2535 1.12353 13.1625C0.919611 14.1536 0.76938 15.1551 0.673518 16.1625C0.580518 17.0325 0.49551 17.9055 0.46551 18.7795C0.430536 19.7706 0.490492 20.7628 0.644526 21.7425C0.780881 22.5723 1.04181 23.3767 1.41851 24.1285C1.76463 24.8116 2.20677 25.4417 2.7315 25.9995C3.24548 26.5441 3.82492 27.0231 4.45654 27.4255C5.08679 27.8217 5.75719 28.1502 6.45654 28.4055C7.40416 28.8148 8.42432 29.0297 9.45654 29.0375C9.86259 29.022 10.247 28.8507 10.53 28.559C10.8129 28.2673 10.9725 27.8778 10.9755 27.4715C10.9751 27.269 10.9346 27.0685 10.8566 26.8817C10.7785 26.6948 10.6643 26.5251 10.5205 26.3825C10.2044 26.1135 9.80809 25.9567 9.39349 25.9365C8.68643 25.8603 7.99347 25.686 7.33453 25.4185C6.77054 25.1766 6.2341 24.8749 5.73449 24.5185C5.35627 24.2166 5.00926 23.8775 4.69854 23.5065C4.44246 23.1576 4.22107 22.7845 4.03753 22.3925C3.84793 21.8954 3.71182 21.3794 3.63153 20.8535C3.50676 19.3689 3.54294 17.8753 3.7395 16.3985C3.7785 16.0235 3.81654 15.6485 3.86254 15.2735C4.09319 13.9038 4.40912 12.5498 4.80853 11.2195C4.99953 10.5335 5.1925 9.84848 5.3645 9.15848C5.5275 8.50348 5.70052 7.85849 5.91552 7.21249C6.03019 6.87049 6.15185 6.53081 6.28051 6.19348C6.38051 5.91948 6.5205 5.22448 6.8955 5.21848C6.9507 5.21805 7.00512 5.2317 7.05358 5.25812C7.10205 5.28454 7.14299 5.32286 7.17254 5.36948C7.27099 5.66778 7.29603 5.98546 7.24554 6.2955C7.24554 7.0035 7.23452 7.71248 7.23052 8.42148C7.19663 9.81348 7.23401 11.2063 7.34252 12.5945C7.38052 12.9945 7.43053 13.3845 7.49853 13.7755C7.53306 13.9916 7.58353 14.2048 7.64953 14.4135C7.75963 14.8562 7.98203 15.2631 8.29522 15.5949C8.60842 15.9267 9.0018 16.1721 9.4375 16.3075C9.89894 16.3922 10.3744 16.3568 10.8182 16.2046C11.262 16.0524 11.6592 15.7886 11.9715 15.4385C12.6049 14.7471 13.0926 13.9353 13.4055 13.0515C13.7055 12.3045 13.8965 11.5145 14.1495 10.7515C14.4102 9.9655 14.6945 9.18748 15.0025 8.41748C15.0575 8.27948 15.1145 8.14249 15.1715 8.00449C15.5796 7.00731 16.0641 6.04311 16.6205 5.12048C16.7745 4.87348 16.9715 4.6015 17.3065 4.7525C17.3449 4.76901 17.3791 4.79396 17.4065 4.8255C17.5065 4.9495 17.4465 5.2255 17.4335 5.3855C17.3962 5.68819 17.3424 5.98862 17.2725 6.28549C17.1565 6.87949 17.0255 7.47048 16.9015 8.06348C16.7925 8.58348 16.6895 9.10549 16.6085 9.63049C16.5515 9.99849 16.4945 10.3635 16.4085 10.7305C16.1852 11.6068 16.0255 12.4982 15.9305 13.3975C15.8949 13.8871 15.9285 14.3793 16.0305 14.8595C16.1634 15.4275 16.4387 15.9523 16.8305 16.3845C17.5218 17.0514 18.2946 17.6283 19.1305 18.1015C19.3031 18.2422 19.464 18.3967 19.6115 18.5635C19.7988 18.8298 19.9621 19.1123 20.0995 19.4075C20.2342 19.7583 20.3347 20.1213 20.3995 20.4915C20.4349 20.8633 20.4349 21.2377 20.3995 21.6095C20.3023 22.182 20.1465 22.7429 19.9345 23.2835C19.7988 23.585 19.6365 23.8738 19.4495 24.1465C19.2965 24.3287 19.1293 24.4986 18.9495 24.6545C18.6856 24.8426 18.4055 25.0069 18.1125 25.1455C17.2941 25.52 16.4211 25.7614 15.5265 25.8605C14.8155 25.8945 14.1355 25.7605 13.5775 26.3265C13.2892 26.6229 13.1262 27.019 13.1225 27.4325C13.1229 27.635 13.1633 27.8355 13.2414 28.0224C13.3195 28.2093 13.4337 28.3789 13.5775 28.5215C13.9034 28.7384 14.2701 28.8867 14.6553 28.9572C15.0404 29.0277 15.4359 29.0189 15.8175 28.9315C17.1661 28.7741 18.478 28.3875 19.6965 27.7885C20.23 27.5241 20.7246 27.1876 21.1665 26.7885C21.6122 26.3847 21.9942 25.9157 22.2995 25.3975C22.4386 25.1659 22.5616 24.925 22.6675 24.6765C22.8385 24.2926 22.9883 23.8997 23.1165 23.4995C23.3706 22.7064 23.51 21.881 23.5305 21.0485C23.5314 20.5619 23.4883 20.0763 23.4015 19.5975Z" fill="#B4B4B4"/>
    <path d="M14.8315 22.0288C15.7341 21.1185 15.7418 19.6628 14.8488 18.7774C13.9558 17.892 12.5003 17.9121 11.5977 18.8223C10.6952 19.7326 10.6874 21.1883 11.5804 22.0737C12.4734 22.9591 13.929 22.939 14.8315 22.0288Z" fill="#B4B4B4"/>
  </g>
  <defs>
    <clipPath id="clip0_1513_6396">
      <rect width="23.085" height="28.101" fill="white" transform="translate(0.457489 0.949463)"/>
    </clipPath>
  </defs>
</svg>
