<svg width="28" height="33" viewBox="0 0 28 33" fill="none"
  xmlns="http://www.w3.org/2000/svg">
  <path d="M26.5245 28.0693C25.677 29.3049 24.5211 30.2999 23.1703 30.9566C21.7809 31.5416 20.2986 31.8781 18.7916 31.9505C18.5123 31.9819 18.2316 31.999 17.9505 32.0015C17.434 32.0488 16.9184 31.9018 16.5055 31.5894C16.263 31.3343 16.1281 30.9964 16.1285 30.6452C16.0721 29.3796 17.4043 29.2992 18.3775 29.2418H18.3839C18.625 29.2278 18.8519 29.2137 19.0378 29.1857C19.9759 29.0354 20.8935 28.7785 21.7727 28.4201L21.8035 28.4074C22.6257 28.0485 23.3467 27.4943 23.9034 26.7934C24.46 26.0924 24.8352 25.2662 24.996 24.3873C25.1568 23.5084 25.0982 22.6036 24.8255 21.7524C24.5528 20.9013 24.0742 20.1298 23.4319 19.5057C23.01 19.128 22.5513 18.7934 22.0625 18.5067C21.4576 18.1657 20.9082 17.7355 20.4328 17.2308C20.0209 16.7808 19.7314 16.2336 19.5917 15.6411C19.4772 15.1137 19.4388 14.5729 19.4776 14.0347C19.5742 13.076 19.7409 12.1255 19.9764 11.1908L20.0341 10.9357C20.1328 10.4993 20.1982 10.0898 20.2738 9.59856C20.3751 8.94787 20.5046 8.30611 20.6187 7.76386C20.6658 7.53931 20.7136 7.31476 20.7624 7.0902V7.06214C20.8649 6.58496 20.9637 6.11799 21.0573 5.64592C21.0726 5.56427 21.0906 5.48261 21.1085 5.39968V5.37927C21.1745 5.09676 21.2224 4.8104 21.2521 4.52189C21.2521 4.49764 21.2521 4.47085 21.2611 4.44151V4.42109C21.302 4.26408 21.3089 4.10024 21.2815 3.94037C21.2541 3.78049 21.193 3.62821 21.1021 3.49354C21.0203 3.39818 20.9177 3.32268 20.8021 3.27281C20.6657 3.20844 20.5171 3.17365 20.3662 3.17074C19.9905 3.17074 19.6584 3.41061 19.3507 3.90054C18.6794 5.02132 18.0948 6.19126 17.6018 7.40024L17.5915 7.42321C17.5265 7.57971 17.462 7.73664 17.3979 7.894C17.0286 8.81262 16.6824 9.75549 16.3722 10.7009C16.2606 11.0352 16.1593 11.3758 16.0606 11.705V11.7127C15.8862 12.2996 15.7208 12.8609 15.4977 13.4032L15.4733 13.4644C15.1265 14.5445 14.5331 15.5301 13.7398 16.3441C13.4139 16.6244 13.0277 16.8268 12.611 16.9356C12.1943 17.0444 11.758 17.0568 11.3357 16.9718C10.9031 16.8256 10.5143 16.5739 10.2047 16.2395C9.89515 15.9052 9.67478 15.499 9.56376 15.058C9.49235 14.8335 9.43792 14.6041 9.40092 14.3716C9.32784 13.9544 9.2727 13.5078 9.22013 13.0064C9.0965 11.4305 9.0537 9.84934 9.09191 8.2691V8.09559C9.09191 7.76046 9.09448 7.42618 9.09961 7.09276V7.01748C9.09961 6.59644 9.1073 6.07461 9.10986 5.57448C9.10986 5.51196 9.10986 5.44051 9.11756 5.38437V5.34992C9.17782 4.96197 9.11929 4.56496 8.94959 4.21057C8.86937 4.0838 8.75839 3.97914 8.62687 3.90623C8.49534 3.83333 8.3475 3.79451 8.19695 3.79337H8.18028C7.27249 3.8023 6.92374 5.14451 6.69295 6.03251C6.64807 6.20603 6.60191 6.38465 6.55704 6.52372C5.4774 9.64291 4.64905 12.8427 4.07986 16.0927L4.07088 16.1769C4.026 16.5418 3.98754 16.9067 3.95164 17.2576L3.92471 17.5204C3.62853 20.5378 3.51057 23.2235 5.08765 25.5482C5.88614 26.8244 7.0535 27.8308 8.43672 28.4354C9.28509 28.8254 10.184 29.0955 11.1075 29.238C11.5009 29.2475 11.8791 29.3906 12.1794 29.6437C12.4219 29.8988 12.5568 30.2367 12.5564 30.5878C12.5434 30.9379 12.3983 31.2703 12.15 31.5186C11.9016 31.767 11.5683 31.913 11.2165 31.9275C11.1473 31.9275 11.069 31.9275 10.9844 31.9275C10.1629 31.901 9.35078 31.746 8.57776 31.4682C6.27504 30.751 4.27703 29.2929 2.89768 27.3229C1.55324 25.325 0.890184 22.9497 1.00646 20.548C1.03723 19.6396 1.12058 18.559 1.25136 17.3367C1.36346 16.1572 1.53981 14.9847 1.77962 13.8242C2.02195 12.7193 2.33096 11.6144 2.60406 10.6346C2.85024 9.75677 3.08232 8.87004 3.30542 8.01266L3.43364 7.50231C3.68078 6.58114 3.97783 5.67395 4.32347 4.78471C4.42861 4.50913 4.52606 4.21057 4.61325 3.94647C4.83425 3.06739 5.23879 2.24447 5.80055 1.53126C6.45843 0.828018 7.36819 0.410905 8.33286 0.370217C8.73399 0.349538 9.13515 0.410369 9.51188 0.549C9.88861 0.687632 10.233 0.901159 10.5241 1.17656C11.0849 1.6941 11.4532 2.38526 11.5691 3.13757C11.7648 4.45114 11.8412 5.77958 11.7973 7.10679C11.7973 7.73707 11.7845 8.45028 11.7858 9.14818C11.7858 9.46714 11.7781 9.80014 11.7704 10.1217V10.1944C11.6812 11.3663 11.7676 12.5449 12.0268 13.6915C12.0432 13.7771 12.0885 13.8545 12.1551 13.911C12.2088 13.94 12.2709 13.9501 12.3311 13.9397C12.3914 13.9293 12.4463 13.8989 12.4871 13.8536C12.5661 13.7605 12.6223 13.6504 12.6513 13.5321C12.8167 13.0217 12.9795 12.5114 13.1231 12.061C13.4257 11.1079 13.7398 10.1217 14.0809 9.16349C14.4745 8.06241 14.9335 6.90776 15.4477 5.73268C15.531 5.54385 15.6118 5.34992 15.7041 5.14451V5.1343C16.485 3.30726 17.294 1.41898 19.0942 0.454424C19.5809 0.182754 20.126 0.0311296 20.6837 0.0122605C21.2414 -0.00660864 21.7956 0.107827 22.2997 0.345976C24.7089 1.62184 23.9935 4.88934 23.5203 7.0481L23.437 7.43086L23.3652 7.76897C23.1395 8.82156 22.9395 9.89583 22.7472 10.9344L22.7408 10.9688C22.5908 11.779 22.4548 12.5101 22.3074 13.2437C22.2089 13.7607 22.269 14.2953 22.4798 14.7778C22.6907 15.2604 23.0425 15.6688 23.4896 15.9498C23.7255 16.1501 23.9729 16.3479 24.2127 16.5393C24.7487 16.9466 25.2571 17.3885 25.7347 17.8623C26.7567 18.9814 27.4601 20.3516 27.7721 21.8316C28.1468 23.9928 27.7022 26.2155 26.5245 28.0693Z" fill="#484848"/>
  <path d="M17.962 22.2845C17.9586 22.8815 17.7215 23.4538 17.3012 23.8799C16.8809 24.306 16.3104 24.5524 15.7105 24.567C15.6956 24.5682 15.6806 24.5682 15.6656 24.567C15.3779 24.5679 15.0928 24.512 14.8269 24.4027C14.5609 24.2933 14.3194 24.1326 14.1161 23.9299C13.9129 23.7272 13.752 23.4865 13.6427 23.2216C13.5335 22.9567 13.478 22.6729 13.4795 22.3865C13.483 21.7895 13.72 21.2173 14.1403 20.7912C14.5607 20.3651 15.1312 20.1186 15.731 20.104H15.7746C16.0626 20.1028 16.348 20.1584 16.6142 20.2676C16.8805 20.3768 17.1223 20.5374 17.3258 20.7402C17.5293 20.9429 17.6905 21.1838 17.7999 21.4488C17.9093 21.7139 17.9636 21.9979 17.962 22.2845Z" fill="#484848"/>
</svg>
