<svg width="17" height="16" viewBox="0 0 17 16" fill="none"
  xmlns="http://www.w3.org/2000/svg">
  <path d="M12.0531 9.25321C12.0531 9.25321 10.8839 8.68916 10.6352 8.57657C10.5761 8.54299 10.5069 8.53135 10.4399 8.54369C10.3729 8.55602 10.3126 8.59163 10.2696 8.644C10.2696 8.644 9.91676 9.09434 9.79772 9.23639C9.67868 9.37844 9.62128 9.51206 9.32475 9.41736C8.81515 9.21588 8.34503 8.92772 7.93561 8.56604C7.55982 8.21592 7.23281 7.81785 6.96313 7.38229C6.92935 7.34292 6.91081 7.29304 6.91081 7.24139C6.91081 7.18973 6.92935 7.13973 6.96313 7.10036L7.42439 6.53636C7.46924 6.4621 7.49293 6.37717 7.49293 6.29064C7.49293 6.20412 7.46924 6.11919 7.42439 6.04493C7.3957 5.96075 6.91741 4.85602 6.8547 4.69819C6.83693 4.6531 6.80827 4.61299 6.77121 4.58143C6.73415 4.54988 6.68984 4.52785 6.64215 4.51721H6.07246C5.96727 4.53804 5.867 4.57829 5.77697 4.63602C5.56931 4.81192 5.40046 5.02827 5.28087 5.27157C5.16129 5.51486 5.09354 5.77987 5.08188 6.0502C5.05559 6.48087 5.15051 6.9104 5.35609 7.29084C5.86694 8.20371 6.5357 9.02064 7.33192 9.70457C8.14236 10.3515 9.09047 10.8081 10.1049 11.0399C10.4213 11.0817 10.7432 11.0527 11.0469 10.9551C11.3506 10.8575 11.6283 10.6937 11.8596 10.4759C11.9937 10.331 12.0922 10.1575 12.1475 9.96878C12.2028 9.78007 12.2134 9.58124 12.1785 9.38782C12.1709 9.35666 12.1554 9.32803 12.1334 9.30446C12.1115 9.28089 12.0838 9.26324 12.0531 9.25321Z" fill="#787878"/>
  <path d="M8.63176 -2.00856e-05C6.54669 0.00276377 4.54785 0.823962 3.07348 2.28359C1.59911 3.74322 0.76956 5.72218 0.766748 7.78641C0.764688 9.21032 1.16088 10.6069 1.91142 11.8216L0.501038 15.9979L4.8523 14.6153C5.90376 15.1848 7.07279 15.5088 8.27007 15.5627C9.46736 15.6165 10.6612 15.3988 11.7605 14.9261C12.8598 14.4534 13.8354 13.7382 14.6129 12.8352C15.3903 11.9321 15.9491 10.8651 16.2463 9.71564C16.5436 8.56618 16.5716 7.36475 16.3282 6.20294C16.0848 5.04114 15.5764 3.9497 14.8419 3.01213C14.1073 2.07456 13.166 1.31566 12.0899 0.793252C11.0138 0.270843 9.83135 -0.00121043 8.63283 -0.0020752L8.63176 -2.00856e-05ZM8.63176 14.2701C7.3459 14.2718 6.0884 13.8961 5.01811 13.1906L2.57359 13.9661L3.36222 11.6301C2.49122 10.4566 2.0452 9.02677 2.09621 7.57139C2.14721 6.11601 2.69224 4.72006 3.64331 3.60914C4.59437 2.49822 5.89592 1.73708 7.33775 1.4487C8.77958 1.16033 10.2775 1.36162 11.5896 2.0199C12.9017 2.67817 13.9513 3.75511 14.569 5.07674C15.1867 6.39838 15.3364 7.8875 14.9939 9.30372C14.6514 10.7199 13.8366 11.9805 12.6813 12.8818C11.5259 13.7831 10.0974 14.2726 8.62647 14.2712L8.63176 14.2701Z" fill="#787878"/>
</svg>
