<svg width="14" height="14" viewBox="0 0 14 14" fill="none" xmlns="http://www.w3.org/2000/svg">
<path d="M10.2832 10.5992C10.8461 11.428 11.6729 12.0418 12.6291 12.3408C12.7133 12.3585 12.8003 12.3575 12.8841 12.3379C12.9679 12.3184 13.0464 12.2807 13.1141 12.2275C13.1742 12.1738 13.2218 12.1075 13.2535 12.0333C13.2852 11.9592 13.3002 11.8789 13.2974 11.7983C13.2973 11.7587 13.2943 11.7192 13.2882 11.68C12.9979 10.7205 12.3921 9.8872 11.5691 9.31501C11.3332 9.10251 11.1099 8.89834 10.9024 8.69501L8.73572 6.51001L9.18573 6.05917C9.93073 5.31417 10.7016 4.54334 11.4357 3.76751C11.5341 3.66334 11.6341 3.56084 11.7332 3.45834C12.4573 2.84722 12.9947 2.04468 13.2841 1.14251C13.2911 1.11104 13.2947 1.07891 13.2949 1.04667C13.2952 0.986277 13.2816 0.926618 13.2554 0.872245C13.2291 0.817871 13.1907 0.77022 13.1432 0.732923C13.0957 0.695627 13.0403 0.669671 12.9812 0.657034C12.9222 0.644397 12.861 0.645414 12.8024 0.660006C11.9037 0.952795 11.1051 1.49183 10.4974 2.21584C10.3941 2.31695 10.2905 2.41751 10.1866 2.51751C9.42241 3.24667 8.66574 4.01084 7.93657 4.75001L7.47156 5.21917L7.35406 5.09251C7.14823 4.86917 6.91407 4.66251 6.68741 4.44084C5.97074 3.74167 5.23656 2.97417 4.49073 2.19084C4.00745 1.63076 3.44082 1.14845 2.81073 0.760839C2.70411 0.699337 2.583 0.667405 2.45991 0.668339C2.32234 0.674609 2.18871 0.716249 2.07193 0.789237C1.95515 0.862225 1.85915 0.964095 1.79323 1.08501C1.73053 1.19316 1.69828 1.31627 1.6999 1.44127C1.70151 1.56627 1.73694 1.68851 1.80241 1.79501C2.20158 2.45667 5.89658 6.13251 6.11658 6.34084L6.23989 6.45751L4.32324 8.38417C4.11574 8.59167 3.90156 8.79667 3.68656 9.00167C2.95775 9.63405 2.32103 10.3653 1.79491 11.1742C1.73205 11.2801 1.69868 11.401 1.69824 11.5242C1.70248 11.6624 1.74248 11.7972 1.81434 11.9153C1.88619 12.0335 1.98746 12.131 2.10825 12.1983C2.21557 12.2624 2.33824 12.2963 2.46324 12.2963C2.58824 12.2963 2.71091 12.2624 2.81824 12.1983C3.6256 11.6683 4.35489 11.0279 4.98491 10.2958C5.18824 10.0808 5.39156 9.86667 5.5974 9.66001L7.51408 7.73334L9.67322 9.92584C9.88072 10.1375 10.0774 10.3617 10.2832 10.5992Z" fill="white"/>
</svg>
